<?xml version="1.0" standalone="no"?>
<!DOCTYPE svg PUBLIC "-//W3C//DTD SVG 20010904//EN"
 "http://www.w3.org/TR/2001/REC-SVG-20010904/DTD/svg10.dtd">
<svg version="1.0" xmlns="http://www.w3.org/2000/svg"
 width="180.000000pt" height="180.000000pt" viewBox="0 0 180.000000 180.000000"
 preserveAspectRatio="xMidYMid meet">
<metadata>
Created by potrace 1.11, written by Peter Selinger 2001-2013
</metadata>
<g transform="translate(0.000000,180.000000) scale(0.100000,-0.100000)"
fill="#000000" stroke="none">
<path d="M1375 1448 c-62 -34 -118 -112 -133 -185 l-8 -38 -74 -7 c-143 -15
-226 -59 -274 -147 -15 -28 -29 -72 -33 -99 l-5 -49 -53 -6 c-134 -14 -229
-94 -264 -223 l-11 -41 -74 -6 c-90 -8 -170 -36 -214 -76 -35 -32 -40 -52 -18
-70 11 -9 20 -10 36 -1 17 9 27 6 58 -19 69 -55 97 -90 97 -124 0 -26 4 -33
24 -35 17 -3 35 9 71 46 49 51 80 119 80 178 0 32 2 33 47 39 139 19 223 68
267 157 14 28 26 62 26 74 0 19 7 22 68 27 96 9 155 32 211 83 52 47 91 125
91 184 0 36 5 39 82 51 111 17 218 86 218 140 0 25 -27 36 -52 20 -16 -10 -25
-6 -65 33 -39 36 -45 46 -35 59 29 35 -17 61 -63 35z m108 -126 c49 -51 11
-48 -49 4 -39 33 -52 49 -43 55 14 9 49 -13 92 -59z m-59 -11 c61 -62 44 -77
-24 -20 -50 42 -56 50 -43 62 11 12 18 8 67 -42z m-40 -30 c26 -26 34 -41 26
-46 -13 -8 -92 63 -84 77 9 14 19 9 58 -31z m-14 -52 c0 -12 -17 -12 -41 1
-10 6 -19 20 -19 31 0 20 0 20 30 -1 17 -12 30 -26 30 -31z m-206 -124 c34
-32 46 -50 42 -62 -6 -13 -17 -7 -61 37 -47 47 -60 71 -37 70 4 -1 29 -21 56
-45z m40 26 c10 -11 16 -27 14 -36 -2 -13 -11 -8 -37 19 -31 32 -32 36 -15 36
12 0 29 -9 38 -19z m-74 -61 c44 -39 62 -62 55 -69 -7 -7 -32 10 -77 50 -38
34 -68 65 -68 70 0 21 29 5 90 -51z m-41 -26 c48 -45 69 -70 62 -77 -12 -12
-164 120 -155 134 10 16 21 9 93 -57z m-42 -25 c75 -68 83 -79 56 -79 -23 1
-146 117 -138 130 9 15 9 15 82 -51z m-36 -30 c61 -53 71 -69 43 -69 -19 0
-125 100 -118 111 8 14 12 12 75 -42z m-1 -64 c10 -13 9 -15 -8 -15 -28 0 -82
47 -82 72 0 18 4 17 38 -11 22 -17 45 -37 52 -46z m-70 0 c7 -8 8 -15 2 -15
-5 0 -15 7 -22 15 -7 8 -8 15 -2 15 5 0 15 -7 22 -15z m-80 -75 c0 -5 -4 -10
-10 -10 -5 0 -10 5 -10 10 0 6 5 10 10 10 6 0 10 -4 10 -10z m-28 -17 c17 -15
25 -43 13 -43 -11 0 -65 44 -65 52 0 14 33 9 52 -9z m-39 -29 c25 -24 36 -41
32 -52 -4 -12 -15 -7 -50 28 -25 24 -45 48 -45 52 0 18 27 6 63 -28z m-38 -29
c33 -30 46 -48 39 -55 -12 -12 -117 77 -108 91 9 15 16 11 69 -36z m-34 -32
c34 -32 46 -49 38 -54 -15 -9 -122 79 -113 92 10 17 25 9 75 -38z m-14 -75
c-16 -10 -92 65 -82 82 5 8 21 -2 51 -31 31 -30 40 -45 31 -51z m-66 18 c23
-20 26 -25 12 -30 -18 -7 -53 20 -53 41 0 19 8 16 41 -11z m-186 -147 c39 -36
58 -69 39 -69 -12 0 -112 95 -108 102 10 15 25 8 69 -33z m44 24 c14 -12 18
-22 12 -32 -7 -10 -16 -6 -42 18 -31 27 -32 30 -13 31 12 0 31 -8 43 -17z
m-78 -55 c57 -50 73 -78 46 -78 -7 0 -42 29 -77 65 -80 81 -57 90 31 13z m-36
-32 c48 -44 67 -68 60 -75 -7 -7 -33 10 -83 55 -39 36 -72 70 -72 75 0 22 30
4 95 -55z"/>
</g>
</svg>
